<svg width="1059" height="772" viewBox="0 0 1059 772" fill="none" xmlns="http://www.w3.org/2000/svg">
<g clip-path="url(#clip0_2_3)">
<path d="M491.853 686.202H552.193V754.32C499.897 750.914 490.177 707.489 491.853 686.202Z" fill="#A62B26"/>
<path d="M503.025 129.909H552.193V182.889H503.025V129.909Z" fill="#A62B26"/>
<path d="M1043.87 239.654H714.825L612.707 135.585H567.321" stroke="#F37873" stroke-width="7"/>
<path d="M1059 229.409H718.607L616.489 125.34H491.679" stroke="#4D1717" stroke-width="7"/>
<path d="M555.975 684.31H501.134" stroke="#4D1717" stroke-width="3.5"/>
<path d="M555.975 652.143H501.134" stroke="#4D1717" stroke-width="3.5"/>
<path d="M555.975 211.271H501.134" stroke="#4D1717" stroke-width="3.5"/>
<path d="M555.975 179.105H501.134" stroke="#4D1717" stroke-width="3.5"/>
<path fill-rule="evenodd" clip-rule="evenodd" d="M1032.52 228.301V705.124C1032.52 726.024 1015.59 742.967 994.704 742.967H540.846C519.958 742.967 503.025 726.024 503.025 705.124V109.745H476.55V705.124C476.55 740.655 505.336 769.457 540.846 769.457H994.704C1030.21 769.457 1059 740.655 1059 705.124V228.301H1032.52Z" fill="#4D1717"/>
<path fill-rule="evenodd" clip-rule="evenodd" d="M1033 231.929H718.786L616.571 127H503V704.844C503 725.918 519.949 743 540.857 743H995.143C1016.05 743 1033 725.918 1033 704.844V231.929Z" fill="#EE3E37"/>
<path d="M563.539 122.34V754.32" stroke="#4D1717" stroke-width="7"/>
<path d="M527.571 13H54.4286C32.6528 13 15 30.5316 15 52.1579V717.842C15 739.468 32.6528 757 54.4286 757H527.571C549.347 757 567 739.468 567 717.842V52.1579C567 30.5316 549.347 13 527.571 13Z" fill="#EE3E37"/>
<path d="M569 687H494V758C560.973 758 569 736.906 569 687Z" fill="#A62B26"/>
<path d="M567 127H497V182H567V127Z" fill="#A62B26"/>
<path d="M15.1286 242.196H401L463.5 138.127H491.679" stroke="#F37873" stroke-width="7"/>
<path d="M15 231H388.5L456.5 125H567" stroke="#4D1717" stroke-width="7"/>
<path d="M503.025 686.853H557.866" stroke="#4D1717" stroke-width="3.5"/>
<path d="M503.025 654.686H557.866" stroke="#4D1717" stroke-width="3.5"/>
<path d="M503.025 213.814H557.866" stroke="#4D1717" stroke-width="3.5"/>
<path d="M503.025 181.647H557.866" stroke="#4D1717" stroke-width="3.5"/>
<path opacity="0.5" d="M124.811 165.564C151.443 165.564 173.033 143.961 173.033 117.314C173.033 90.666 151.443 69.0637 124.811 69.0637C98.1782 69.0637 76.5884 90.666 76.5884 117.314C76.5884 143.961 98.1782 165.564 124.811 165.564Z" fill="white" stroke="#4D1717" stroke-width="3.5"/>
<path d="M124.811 153.265C144.655 153.265 160.741 137.169 160.741 117.314C160.741 97.4585 144.655 81.3627 124.811 81.3627C104.967 81.3627 88.8804 97.4585 88.8804 117.314C88.8804 137.169 104.967 153.265 124.811 153.265Z" fill="#5FC7FB" stroke="#17264D"/>
<path d="M117.246 124.882C123.513 124.882 128.593 119.799 128.593 113.529C128.593 107.259 123.513 102.176 117.246 102.176C110.98 102.176 105.9 107.259 105.9 113.529C105.9 119.799 110.98 124.882 117.246 124.882Z" fill="#AFE3FD"/>
<path d="M514.371 83.2549C522.727 83.2549 529.5 76.4777 529.5 68.1176C529.5 59.7576 522.727 52.9804 514.371 52.9804C506.016 52.9804 499.243 59.7576 499.243 68.1176C499.243 76.4777 506.016 83.2549 514.371 83.2549Z" fill="#77A946" stroke="#4D1717" stroke-width="2"/>
<path d="M465.204 83.2549C473.559 83.2549 480.332 76.4777 480.332 68.1176C480.332 59.7576 473.559 52.9804 465.204 52.9804C456.848 52.9804 450.075 59.7576 450.075 68.1176C450.075 76.4777 456.848 83.2549 465.204 83.2549Z" fill="#F5A623" stroke="#4D1717" stroke-width="2"/>
<path d="M416.036 83.2549C424.391 83.2549 431.164 76.4777 431.164 68.1176C431.164 59.7576 424.391 52.9804 416.036 52.9804C407.68 52.9804 400.907 59.7576 400.907 68.1176C400.907 76.4777 407.68 83.2549 416.036 83.2549Z" fill="#CB0000" stroke="#4D1717" stroke-width="2"/>
<path d="M437 255H93C85.8203 255 80 259.328 80 264.667V535.333C80 540.672 85.8203 545 93 545H437C444.18 545 450 540.672 450 535.333V264.667C450 259.328 444.18 255 437 255Z" fill="#6BEAEA" stroke="#4D1717" stroke-width="3.5"/>
<path d="M518.154 13.2451H64.2964C36.0973 13.2451 13.2375 36.1181 13.2375 64.3333V707.667C13.2375 735.882 36.0973 758.755 64.2964 758.755H518.154C546.353 758.755 569.212 735.882 569.212 707.667V64.3333C569.212 36.1181 546.353 13.2451 518.154 13.2451Z" stroke="#4D1717" stroke-width="7"/>
<path d="M495.461 124.882V756.863" stroke="#4D1717" stroke-width="7"/>
</g>
<defs>
<clipPath id="clip0_2_3">
<rect width="1059" height="772" fill="white"/>
</clipPath>
</defs>
</svg>
